<?xml version="1.0" encoding="UTF-8" standalone="no"?><!DOCTYPE svg PUBLIC "-//W3C//DTD SVG 1.1//EN" "http://www.w3.org/Graphics/SVG/1.1/DTD/svg11.dtd"><svg width="100%" height="100%" viewBox="0 0 1584 313" version="1.1" xmlns="http://www.w3.org/2000/svg" xmlns:xlink="http://www.w3.org/1999/xlink" xml:space="preserve" xmlns:serif="http://www.serif.com/" style="fill-rule:evenodd;clip-rule:evenodd;stroke-linecap:round;stroke-linejoin:round;stroke-miterlimit:1.5;"><g><path d="M25.931,276.813l134.614,-0l-0,-129.515l134.613,0l-0,-125.356l134.613,-0" style="fill:none;stroke:#fff;stroke-width:27.93px;"/><g transform="matrix(3.84609,0,0,3.84609,-2587.97,-197.799)"><g transform="matrix(63.5741,0,0,63.5741,758.34,116.708)"><path d="M0.339,-0.357c-0.01,-0.019 -0.025,-0.035 -0.046,-0.048c-0.02,-0.012 -0.043,-0.018 -0.069,-0.018c-0.012,0 -0.024,0.001 -0.036,0.004c-0.012,0.003 -0.023,0.007 -0.032,0.013c-0.009,0.006 -0.017,0.014 -0.023,0.023c-0.005,0.009 -0.008,0.02 -0.008,0.033c-0,0.022 0.009,0.039 0.027,0.05c0.018,0.012 0.046,0.022 0.085,0.03c0.055,0.011 0.096,0.028 0.122,0.05c0.027,0.021 0.04,0.05 0.04,0.087c0,0.027 -0.005,0.049 -0.016,0.068c-0.01,0.018 -0.023,0.033 -0.04,0.045c-0.017,0.011 -0.035,0.02 -0.056,0.025c-0.022,0.005 -0.043,0.007 -0.064,0.007c-0.035,0 -0.07,-0.007 -0.103,-0.022c-0.033,-0.015 -0.061,-0.038 -0.082,-0.069l0.054,-0.04c0.012,0.021 0.03,0.038 0.053,0.052c0.023,0.014 0.049,0.021 0.077,0.021c0.015,0 0.029,-0.001 0.042,-0.004c0.013,-0.003 0.025,-0.007 0.035,-0.014c0.01,-0.007 0.018,-0.015 0.024,-0.025c0.006,-0.011 0.009,-0.024 0.009,-0.039c-0,-0.025 -0.012,-0.043 -0.036,-0.055c-0.023,-0.013 -0.057,-0.024 -0.102,-0.035c-0.014,-0.003 -0.029,-0.007 -0.045,-0.012c-0.015,-0.005 -0.03,-0.013 -0.043,-0.022c-0.013,-0.01 -0.024,-0.022 -0.033,-0.037c-0.009,-0.015 -0.013,-0.033 -0.013,-0.055c-0,-0.024 0.005,-0.044 0.014,-0.062c0.009,-0.017 0.022,-0.03 0.037,-0.041c0.016,-0.012 0.034,-0.02 0.054,-0.025c0.02,-0.005 0.041,-0.008 0.062,-0.008c0.033,0 0.064,0.007 0.095,0.022c0.031,0.015 0.054,0.035 0.069,0.062l-0.052,0.039Z" style="fill:#fff;fill-rule:nonzero;"/></g><g transform="matrix(63.5741,0,0,63.5741,786.567,116.708)"><path d="M0.159,-0l-0.068,-0l0,-0.468l0.068,0l0,0.468Zm0.014,-0.648c0,0.014 -0.005,0.025 -0.015,0.034c-0.01,0.01 -0.021,0.014 -0.033,0.014c-0.012,0 -0.023,-0.004 -0.033,-0.014c-0.01,-0.009 -0.015,-0.02 -0.015,-0.034c-0,-0.014 0.005,-0.026 0.015,-0.034c0.01,-0.009 0.021,-0.014 0.033,-0.014c0.012,0 0.023,0.005 0.033,0.014c0.01,0.008 0.015,0.02 0.015,0.034Z" style="fill:#fff;fill-rule:nonzero;"/></g><g transform="matrix(63.5741,0,0,63.5741,802.461,116.708)"><path d="M0.157,-0.388c0.013,-0.027 0.034,-0.049 0.062,-0.067c0.027,-0.016 0.058,-0.025 0.092,-0.025c0.013,0 0.026,0.001 0.04,0.004c0.013,0.003 0.027,0.008 0.04,0.016c0.013,0.007 0.025,0.017 0.036,0.03c0.011,0.013 0.02,0.029 0.028,0.049c0.016,-0.032 0.038,-0.056 0.066,-0.073c0.027,-0.017 0.06,-0.026 0.098,-0.026c0.059,0 0.104,0.018 0.134,0.053c0.029,0.035 0.044,0.082 0.044,0.14l0,0.287l-0.068,0l0,-0.259c0,-0.049 -0.009,-0.089 -0.027,-0.119c-0.019,-0.03 -0.05,-0.045 -0.094,-0.045c-0.025,0 -0.045,0.005 -0.062,0.015c-0.017,0.01 -0.031,0.023 -0.041,0.04c-0.011,0.016 -0.018,0.034 -0.023,0.055c-0.005,0.021 -0.007,0.042 -0.007,0.064l0,0.249l-0.068,0l0,-0.273c0,-0.023 -0.002,-0.043 -0.005,-0.062c-0.003,-0.019 -0.009,-0.034 -0.017,-0.047c-0.009,-0.013 -0.02,-0.023 -0.035,-0.03c-0.015,-0.007 -0.033,-0.011 -0.056,-0.011c-0.016,0 -0.032,0.004 -0.048,0.011c-0.017,0.007 -0.031,0.019 -0.044,0.034c-0.013,0.015 -0.024,0.033 -0.032,0.056c-0.008,0.023 -0.012,0.051 -0.012,0.082l0,0.24l-0.068,-0l0,-0.365c0,-0.013 -0,-0.029 -0.001,-0.049c-0.001,-0.02 -0.002,-0.038 -0.003,-0.054l0.065,-0c0.001,0.013 0.002,0.027 0.003,0.042c0.001,0.015 0.001,0.028 0.001,0.038l0.002,0Z" style="fill:#fff;fill-rule:nonzero;"/></g><g transform="matrix(63.5741,0,0,63.5741,858.596,116.708)"><path d="M0.158,0.24l-0.068,0l0,-0.708l0.068,-0l0,0.081l0.003,-0c0.019,-0.031 0.045,-0.054 0.078,-0.07c0.032,-0.015 0.065,-0.023 0.098,-0.023c0.037,0 0.07,0.006 0.1,0.019c0.029,0.013 0.055,0.03 0.076,0.052c0.021,0.022 0.037,0.048 0.049,0.078c0.011,0.03 0.017,0.062 0.017,0.097c0,0.035 -0.006,0.067 -0.017,0.097c-0.012,0.03 -0.028,0.056 -0.049,0.078c-0.021,0.022 -0.047,0.039 -0.076,0.052c-0.03,0.013 -0.063,0.019 -0.1,0.019c-0.033,-0 -0.066,-0.008 -0.098,-0.024c-0.033,-0.015 -0.059,-0.038 -0.078,-0.067l-0.003,-0l0,0.319Zm0.349,-0.474c0,-0.026 -0.004,-0.051 -0.012,-0.074c-0.008,-0.023 -0.019,-0.043 -0.034,-0.059c-0.015,-0.018 -0.034,-0.031 -0.056,-0.041c-0.022,-0.01 -0.047,-0.015 -0.075,-0.015c-0.026,0 -0.05,0.005 -0.072,0.014c-0.022,0.01 -0.041,0.023 -0.057,0.04c-0.016,0.018 -0.028,0.037 -0.037,0.061c-0.009,0.022 -0.014,0.047 -0.014,0.074c0,0.027 0.005,0.051 0.014,0.074c0.009,0.023 0.021,0.043 0.037,0.06c0.016,0.017 0.035,0.03 0.057,0.039c0.022,0.01 0.046,0.015 0.072,0.015c0.028,-0 0.053,-0.005 0.075,-0.015c0.022,-0.009 0.041,-0.023 0.056,-0.04c0.015,-0.017 0.026,-0.037 0.034,-0.06c0.008,-0.023 0.012,-0.047 0.012,-0.073Z" style="fill:#fff;fill-rule:nonzero;"/></g><g transform="matrix(63.5741,0,0,63.5741,898.966,116.708)"><rect x="0.092" y="-0.756" width="0.068" height="0.756" style="fill:#fff;fill-rule:nonzero;"/></g><g transform="matrix(63.5741,0,0,63.5741,914.987,116.708)"><path d="M0.447,-0.27c-0.002,-0.044 -0.016,-0.081 -0.042,-0.109c-0.027,-0.03 -0.064,-0.044 -0.113,-0.044c-0.023,0 -0.044,0.004 -0.063,0.012c-0.019,0.009 -0.036,0.02 -0.051,0.034c-0.015,0.015 -0.026,0.031 -0.035,0.049c-0.009,0.019 -0.014,0.038 -0.015,0.058l0.319,0Zm0.069,0.022l0,0.015c0,0.005 -0,0.011 -0.001,0.017l-0.388,0c0.001,0.023 0.005,0.045 0.014,0.066c0.009,0.021 0.021,0.039 0.036,0.054c0.015,0.015 0.033,0.028 0.054,0.037c0.021,0.009 0.043,0.013 0.067,0.013c0.035,0 0.066,-0.008 0.091,-0.024c0.026,-0.017 0.046,-0.036 0.059,-0.057l0.051,0.04c-0.028,0.035 -0.059,0.061 -0.092,0.076c-0.034,0.015 -0.07,0.023 -0.109,0.023c-0.035,0 -0.067,-0.006 -0.097,-0.018c-0.029,-0.013 -0.055,-0.03 -0.076,-0.052c-0.021,-0.022 -0.038,-0.048 -0.051,-0.078c-0.012,-0.03 -0.018,-0.063 -0.018,-0.098c-0,-0.035 0.006,-0.068 0.018,-0.098c0.012,-0.03 0.029,-0.056 0.05,-0.078c0.021,-0.022 0.046,-0.039 0.075,-0.051c0.029,-0.013 0.06,-0.019 0.093,-0.019c0.037,0 0.069,0.006 0.097,0.019c0.028,0.012 0.051,0.029 0.07,0.05c0.019,0.021 0.033,0.045 0.043,0.073c0.009,0.028 0.014,0.058 0.014,0.09Z" style="fill:#fff;fill-rule:nonzero;"/></g><g transform="matrix(63.5741,0,0,63.5741,951.351,116.708)"><path d="M0.447,-0.524c-0.015,-0.019 -0.034,-0.033 -0.057,-0.044c-0.024,-0.011 -0.047,-0.017 -0.069,-0.017c-0.011,0 -0.023,0.001 -0.034,0.003c-0.012,0.002 -0.023,0.006 -0.032,0.012c-0.009,0.005 -0.017,0.013 -0.023,0.022c-0.007,0.009 -0.01,0.02 -0.01,0.034c0,0.012 0.003,0.022 0.008,0.03c0.005,0.008 0.012,0.015 0.021,0.021c0.01,0.006 0.022,0.011 0.035,0.016c0.013,0.005 0.028,0.011 0.045,0.016c0.024,0.008 0.049,0.017 0.075,0.026c0.026,0.01 0.05,0.023 0.071,0.039c0.021,0.016 0.039,0.036 0.053,0.059c0.014,0.024 0.021,0.054 0.021,0.089c0,0.041 -0.008,0.076 -0.023,0.105c-0.015,0.03 -0.035,0.055 -0.06,0.074c-0.025,0.019 -0.054,0.034 -0.087,0.043c-0.033,0.009 -0.066,0.014 -0.101,0.014c-0.051,-0 -0.1,-0.009 -0.147,-0.027c-0.047,-0.017 -0.087,-0.042 -0.118,-0.075l0.112,-0.114c0.017,0.021 0.04,0.039 0.068,0.053c0.029,0.015 0.057,0.022 0.085,0.022c0.013,-0 0.025,-0.001 0.037,-0.004c0.012,-0.003 0.022,-0.007 0.032,-0.013c0.009,-0.006 0.016,-0.014 0.021,-0.024c0.005,-0.01 0.008,-0.022 0.008,-0.036c-0,-0.013 -0.003,-0.025 -0.01,-0.034c-0.007,-0.009 -0.016,-0.018 -0.028,-0.026c-0.013,-0.007 -0.028,-0.014 -0.046,-0.021c-0.019,-0.006 -0.04,-0.013 -0.063,-0.02c-0.023,-0.007 -0.045,-0.016 -0.066,-0.026c-0.022,-0.01 -0.041,-0.023 -0.058,-0.038c-0.017,-0.016 -0.031,-0.035 -0.041,-0.057c-0.011,-0.023 -0.016,-0.05 -0.016,-0.082c0,-0.039 0.008,-0.073 0.024,-0.101c0.016,-0.028 0.037,-0.051 0.063,-0.069c0.026,-0.018 0.055,-0.031 0.088,-0.04c0.033,-0.008 0.066,-0.012 0.099,-0.012c0.04,0 0.081,0.007 0.123,0.022c0.041,0.015 0.078,0.036 0.109,0.065l-0.109,0.115Z" style="fill:#fff;fill-rule:nonzero;"/></g><g transform="matrix(63.5741,0,0,63.5741,988.923,116.708)"><path d="M0.073,-0l0,-0.708l0.476,0l0,0.145l-0.311,-0l-0,0.133l0.294,-0l0,0.137l-0.294,-0l-0,0.147l0.329,-0l0,0.146l-0.494,-0Z" style="fill:#fff;fill-rule:nonzero;"/></g><g transform="matrix(63.5741,0,0,63.5741,1027.51,116.708)"><path d="M0.523,-0l-0.285,-0.463l-0.003,0l0.004,0.463l-0.166,-0l0,-0.708l0.195,0l0.284,0.462l0.003,-0l-0.004,-0.462l0.166,0l-0,0.708l-0.194,-0Z" style="fill:#fff;fill-rule:nonzero;"/></g></g><path d="M346.332,286.617l372.807,-0" style="fill:none;stroke:#8bbd3f;stroke-width:13.96px;stroke-linecap:square;"/><path d="M770.415,286.617l286.552,-0" style="fill:none;stroke:#8bbd3f;stroke-width:13.96px;stroke-linecap:square;"/></g></svg>